<svg xmlns="http://www.w3.org/2000/svg" width="113" height="113" viewBox="0 0 113 113"><defs><style>.a{fill:#c10d19;}.b{fill:#8b8b8b;}</style></defs><g transform="translate(-1 -1)"><g transform="translate(52.032 22.871)"><path class="a" d="M29,23H90.968V77.677H29Z" transform="translate(-29 -4.774)"/><path class="a" d="M90.968,27.581V18.468A5.468,5.468,0,0,0,85.5,13H34.468A5.468,5.468,0,0,0,29,18.468v9.113Z" transform="translate(-29 -13)"/><path class="a" d="M29,55v9.113a5.468,5.468,0,0,0,5.468,5.468H85.5a5.468,5.468,0,0,0,5.468-5.468V55Zm34.629,9.113h-7.29a1.823,1.823,0,1,1,0-3.645h7.29a1.823,1.823,0,1,1,0,3.645Z" transform="translate(-29 21.548)"/></g><path class="b" d="M72.081,1H6.468A5.468,5.468,0,0,0,1,6.468V57.5a5.468,5.468,0,0,0,5.468,5.468h19.72l-1.216,7.29H19.226a1.823,1.823,0,1,0,0,3.645h40.1a1.823,1.823,0,0,0,0-3.645H53.576l-1.216-7.29h19.72A5.468,5.468,0,0,0,77.548,57.5V6.468A5.468,5.468,0,0,0,72.081,1ZM6.468,4.645H72.081A1.823,1.823,0,0,1,73.9,6.468V44.742H4.645V6.468A1.823,1.823,0,0,1,6.468,4.645ZM49.88,70.258H28.669l1.214-7.29H48.666Zm22.2-10.935H6.468A1.823,1.823,0,0,1,4.645,57.5V48.387H73.9V57.5A1.823,1.823,0,0,1,72.081,59.323Z" transform="translate(0 0)"/><path class="b" d="M28.113,29h-7.29a1.823,1.823,0,0,0,0,3.645h7.29a1.823,1.823,0,1,0,0-3.645Z" transform="translate(14.806 23.032)"/></g></svg>