<?xml version="1.0" encoding="UTF-8" standalone="no"?>
<svg
   xmlns:dc="http://purl.org/dc/elements/1.1/"
   xmlns:cc="http://creativecommons.org/ns#"
   xmlns:rdf="http://www.w3.org/1999/02/22-rdf-syntax-ns#"
   xmlns:svg="http://www.w3.org/2000/svg"
   xmlns="http://www.w3.org/2000/svg"
   xmlns:sodipodi="http://sodipodi.sourceforge.net/DTD/sodipodi-0.dtd"
   xmlns:inkscape="http://www.inkscape.org/namespaces/inkscape"
   width="100"
   height="20"
   viewBox="0 0 26.458333 5.2916668"
   version="1.1"
   id="svg8"
   inkscape:version="1.0.1 (3bc2e813f5, 2020-09-07)"
   sodipodi:docname="dibujo.svg">
  <title
     id="title91">La Opinión logo</title>
  <defs
     id="defs2" />
  <sodipodi:namedview
     id="base"
     pagecolor="#ffffff"
     bordercolor="#666666"
     borderopacity="1.0"
     inkscape:pageopacity="0.0"
     inkscape:pageshadow="2"
     inkscape:zoom="11.313709"
     inkscape:cx="48.366298"
     inkscape:cy="12.096179"
     inkscape:document-units="px"
     inkscape:current-layer="Capa_2"
     inkscape:document-rotation="0"
     showgrid="false"
     inkscape:showpageshadow="false"
     units="px"
     inkscape:window-width="1366"
     inkscape:window-height="745"
     inkscape:window-x="-8"
     inkscape:window-y="-8"
     inkscape:window-maximized="1" />
  <metadata
     id="metadata5">
    <rdf:RDF>
      <cc:Work
         rdf:about="">
        <dc:format>image/svg+xml</dc:format>
        <dc:type
           rdf:resource="http://purl.org/dc/dcmitype/StillImage" />
        <dc:title>La Opinión logo</dc:title>
        <cc:license
           rdf:resource="http://scripts.sil.org/OFL" />
      </cc:Work>
      <cc:License
         rdf:about="http://scripts.sil.org/OFL">
        <cc:permits
           rdf:resource="http://scripts.sil.org/pub/OFL/Reproduction" />
        <cc:permits
           rdf:resource="http://scripts.sil.org/pub/OFL/Distribution" />
        <cc:permits
           rdf:resource="http://scripts.sil.org/pub/OFL/Embedding" />
        <cc:permits
           rdf:resource="http://scripts.sil.org/pub/OFL/DerivativeWorks" />
        <cc:requires
           rdf:resource="http://scripts.sil.org/pub/OFL/Notice" />
        <cc:requires
           rdf:resource="http://scripts.sil.org/pub/OFL/Attribution" />
        <cc:requires
           rdf:resource="http://scripts.sil.org/pub/OFL/ShareAlike" />
        <cc:requires
           rdf:resource="http://scripts.sil.org/pub/OFL/DerivativeRenaming" />
        <cc:requires
           rdf:resource="http://scripts.sil.org/pub/OFL/BundlingWhenSelling" />
      </cc:License>
    </rdf:RDF>
  </metadata>
  <g
     inkscape:label="Capa 1"
     inkscape:groupmode="layer"
     id="layer1">
    <g
       id="Capa_2"
       data-name="Capa 2"
       transform="matrix(0.08098023,0,0,0.08098023,0.15390142,0.08135241)">
      <g
         id="Capa_1-2"
         data-name="Capa 1"
         transform="translate(0,-0.41255367)">
        <path
           id="path6"
           d="m 274.11914,0 c -2.5,0 -3.77922,1.409375 -5.69922,4.609375 h -0.01 c -3.01,4.99 -3.9,6.460703 -4.75,7.970703 l 2.75976,2.240234 c 1.28,-0.83 2.5593,-1.729921 6.7793,-4.669921 C 275.99922,8.1603902 278,6.31 278,4 278.0334,1.8235666 276.29559,0.03241634 274.11914,0 Z m -35.72266,3.1425781 c -0.026,4.776e-4 -0.0521,0.00113 -0.0781,0.00195 -3.06947,0.073863 -5.56924,2.4895384 -5.74805,5.5546876 0.18489,3.1173283 2.76684,5.5506803 5.88965,5.5506803 3.12281,0 5.70476,-2.433352 5.88965,-5.5506803 -0.18312,-3.144295 -2.80369,-5.590331 -5.95313,-5.5566407 z m -60.41601,0.078125 c -3.07003,0.033638 -5.60116,2.416133 -5.82031,5.4785157 0.52575,7.3017012 11.24378,7.3017012 11.76953,0 -0.22269,-3.111877 -2.82957,-5.5125003 -5.94922,-5.4785157 z m -72.90039,3.9492188 c -10.750004,0 -20.599611,7.1006251 -20.599611,22.1406251 0,15.04 9.779607,22.138672 20.599611,22.138672 10.82,0 20.60937,-7.138672 20.60937,-22.138672 0,-15.04 -9.85937,-22.1406251 -20.60937,-22.1406251 z M 4.2890625,8.4394531 v 0.00977 H 0 v 3.7714839 l 4.3847656,0.453125 c 0.094065,5.186107 0.1052307,10.421848 0.1445313,15.585938 v 3.90039 c 0,3.819127 -0.00268,8.730781 -0.09375,13.78125 L 0,46.400391 v 3.769531 h 33.650391 l 0.638671,-12.730469 h -5.61914 l -1.746094,8.890625 H 17.255859 C 17.156319,41.027179 17.150391,35.807694 17.150391,31.220703 v -2.941406 c 0,-5.241685 0.0036,-10.442688 0.09375,-15.544922 l 5.085937,-0.513672 V 8.4492188 h -4.990234 c 9.5e-5,-0.00323 -9.5e-5,-0.00654 0,-0.00977 z M 105.08008,11.009766 c 5.49,0 7.49023,7.290781 7.49023,18.300781 0,11.01 -2.05023,18.240234 -7.49023,18.240234 -5.430004,0 -7.480471,-7.300234 -7.480471,-18.240234 0,-10.94 1.990467,-18.300781 7.480471,-18.300781 z M 53.25,17.949219 c -10.31,0 -15.619141,3.841562 -15.619141,9.351562 C 38.270859,29.600781 40,30.75 42.5,30.75 c 2.75,0 5.240234,-1.979922 5.240234,-7.169922 v -2.101562 c 0.319405,-0.0187 0.639117,-0.03172 0.958985,-0.03906 4.03,0 4.871093,1.729922 4.871093,7.169922 v 2.306641 c -1.384548,0.361689 -2.915565,0.748952 -3.910156,1.013672 -10.37,2.759999 -13.120078,6.071249 -13.080078,11.03125 0,5.259999 3.390313,8.259765 8.320313,8.259765 4.591288,0 6.57915,-1.791601 9.107421,-4.515625 1.090843,2.864112 3.512317,4.464844 7.431641,4.464844 4.57,0 7.040313,-1.539453 8.570313,-5.439453 l -1.84961,-1 c -0.73,1.15 -1.220468,1.410156 -1.730468,1.410156 -0.624779,0.05918 -1.149025,-0.465065 -1.089844,-1.089844 v -14.68164 c 0,-8.77 -3.259844,-12.419922 -12.089844,-12.419922 z m 161.01953,0.01172 c -3.62347,0 -6.29763,1.045168 -9.73242,5.089843 L 204.2207,18.710938 203.07031,18 188.91992,22.400391 V 25 l 3.46094,0.560547 c 0.13,2.56 0.18945,3.649922 0.18945,7.169922 v 4 c 0,2.732056 -0.0395,6.353271 -0.0996,9.503906 l -2.91015,0.675781 v 3.259766 h 17.66992 v -3.259766 l -2.39453,-0.519531 c -0.0618,-3.168667 -0.10547,-6.859782 -0.10547,-9.660156 V 26.507812 c 1.47861,-1.060272 2.99397,-1.677734 4.16015,-1.677734 2.05,0 2.87891,1.279922 2.87891,4.669922 v 7.230469 c 0,2.822428 -0.0395,6.415693 -0.0996,9.537109 L 209,46.910156 v 3.300782 h 17.67969 v -3.261719 l -2.64649,-0.544922 c -0.0621,-3.14402 -0.10351,-6.806643 -0.10351,-9.673828 v -8.060547 c 0,-6.98 -4.10016,-10.668985 -9.66016,-10.708984 z m 97.01953,0 c -3.62347,0 -6.29763,1.045168 -9.73242,5.089843 L 301.24023,18.710938 300.08984,18 286,22.400391 V 25 l 3.40039,0.560547 c 0.13,2.56 0.18945,3.649922 0.18945,7.169922 v 4 c 0,2.73267 -0.0395,6.354886 -0.0996,9.505859 l -2.90039,0.673828 v 3.259766 H 304.25 v -3.259766 l -2.39062,-0.519531 C 301.79419,43.221963 301.75,39.530835 301.75,36.730469 V 26.507812 c 1.47861,-1.060272 2.99396,-1.677734 4.16016,-1.677734 2.05,0 2.8789,1.279922 2.8789,4.669922 v 7.230469 c 0,2.820511 -0.0396,6.410843 -0.0996,9.53125 L 306,46.910156 v 3.300782 h 17.75 v -3.261719 l -2.64453,-0.544922 C 321.04384,43.260279 321,39.597651 321,36.730469 v -8.060547 c 0,-6.98 -4.14094,-10.668985 -9.71094,-10.708984 z m -168.71875,0.01953 -14,4.419922 V 25 l 3.45899,0.599609 c 0.13,2.56 0.1914,3.649922 0.1914,7.169922 l -0.0312,16.929688 c 0,2.945904 -0.0464,6.579922 -0.11914,10.708984 l -2.85937,0.642578 v 3.330078 h 18.49995 v -3.330078 l -3.42578,-0.93164 c -0.0693,-3.999216 -0.11524,-7.542764 -0.11524,-10.419922 v -1.558594 c 1.97624,1.999591 4.46409,3.089844 7.89063,3.089844 7.1,0 13.88867,-6.279531 13.88867,-16.769531 0,-10.94 -5.66992,-16.451172 -12.66992,-16.451172 -3.70323,0 -6.72907,1.32924 -9.34766,3.986328 l -0.27148,-3.435547 z m 124.24024,0 c -9.89,0 -16.89063,6.848672 -16.89063,16.388672 0,9.53 5.99063,16.830078 16.89063,16.830078 10.9,0 16.90039,-7.100078 16.90039,-16.830078 0,-9.73 -7.01039,-16.388672 -16.90039,-16.388672 z M 183.28906,18 168.44922,22.400391 V 25 l 3.45117,0.599609 c 0.13,2.56 0.18945,4.540547 0.18945,8.060547 v 3.070313 c 0,2.736982 -0.0413,6.366193 -0.10156,9.519531 l -2.83789,0.660156 v 3.259766 h 2.75 l 12.53906,0.01953 c -1.8e-4,-0.0045 1.9e-4,-0.01505 0,-0.01953 H 187 v -3.259766 l -2.64453,-0.550781 C 184.2944,43.199066 184.25,39.533878 184.25,36.75 v -8.509766 l 0.18945,-9.529296 z m 60.42188,0 -14.85156,4.400391 V 25 l 3.46093,0.599609 c 0.12,2.56 0.18946,4.540547 0.18946,8.060547 v 3.070313 c 0,2.736974 -0.0416,6.366197 -0.10157,9.519531 l -2.84765,0.660156 v 3.259766 h 2.75976 l 12.53907,0.01953 c -2.1e-4,-0.0045 2e-4,-0.01505 0,-0.01953 h 2.56054 v -3.259766 l -2.64648,-0.550781 c -0.0615,-3.160311 -0.10352,-6.825494 -0.10352,-9.609375 v -8.509766 l 0.18946,-9.529296 z m 23.10937,3.5 c 2.82,0 4.09961,3.780547 4.09961,13.060547 h -0.01 c 0,9.34 -1.27985,13.119141 -4.08985,13.119141 -2.81,0 -4.09961,-3.839141 -4.09961,-13.119141 0,-9.28 1.27961,-13.060547 4.09961,-13.060547 z m -119.42969,2.820312 c 3.39,0 5.64844,2.850626 5.64844,10.140626 0,7.289999 -2.2389,10.61914 -5.6289,10.61914 -1.22962,0 -2.19481,-0.330666 -3.05078,-0.916016 V 25.28125 c 0.91304,-0.571838 1.92653,-0.960938 3.03124,-0.960938 z M 53.570312,33.9375 v 10.644531 c -0.775403,0.609951 -1.70805,0.987209 -2.689453,1.087891 -1.86,0 -3.330078,-1.539922 -3.330078,-4.669922 0.01193,-2.768235 1.654113,-5.269409 4.189453,-6.380859 0.606227,-0.237285 1.216337,-0.464529 1.830078,-0.681641 z"
           style="fill:#e30613;fill-opacity:1"
           sodipodi:nodetypes="ccccccccsccscssccccsssssccccccsccccccccssccccccsssssscssccscccscsccccssssccccccssccccccscsssccccccsssssccccccssccccccscsssccccccssssccccccccccccscssscccsssssccccsscccccccccscccccccsscccccccccscccsccsssssssccscccccc" />
      </g>
    </g>
  </g>
</svg>
